<mxfile host="app.diagrams.net" modified="2021-02-15T16:54:20.235Z" agent="5.0 (Windows NT 10.0; Win64; x64) AppleWebKit/537.36 (KHTML, like Gecko) Chrome/88.0.4324.150 Safari/537.36" etag="OjhlSC-H-wsvUZEBCkqw" version="14.3.0" type="github" pages="2">
  <diagram id="CvPVASCvKxNh-goHoSoB" name="Page-1">
    <mxGraphModel dx="1182" dy="732" grid="1" gridSize="10" guides="1" tooltips="1" connect="1" arrows="1" fold="1" page="1" pageScale="1" pageWidth="827" pageHeight="1169" math="0" shadow="0">
      <root>
        <mxCell id="0" />
        <mxCell id="1" parent="0" />
        <mxCell id="mqr7jfdnuR5FkfQfjKes-1" style="edgeStyle=orthogonalEdgeStyle;rounded=0;orthogonalLoop=1;jettySize=auto;html=1;" parent="1" source="mqr7jfdnuR5FkfQfjKes-10" target="mqr7jfdnuR5FkfQfjKes-11" edge="1">
          <mxGeometry relative="1" as="geometry" />
        </mxCell>
        <mxCell id="mqr7jfdnuR5FkfQfjKes-2" style="edgeStyle=orthogonalEdgeStyle;rounded=0;orthogonalLoop=1;jettySize=auto;html=1;" parent="1" source="mqr7jfdnuR5FkfQfjKes-10" target="mqr7jfdnuR5FkfQfjKes-12" edge="1">
          <mxGeometry relative="1" as="geometry" />
        </mxCell>
        <mxCell id="mqr7jfdnuR5FkfQfjKes-3" style="edgeStyle=orthogonalEdgeStyle;rounded=0;orthogonalLoop=1;jettySize=auto;html=1;" parent="1" source="mqr7jfdnuR5FkfQfjKes-10" target="mqr7jfdnuR5FkfQfjKes-14" edge="1">
          <mxGeometry relative="1" as="geometry">
            <Array as="points">
              <mxPoint x="370" y="465" />
              <mxPoint x="330" y="465" />
            </Array>
          </mxGeometry>
        </mxCell>
        <mxCell id="mqr7jfdnuR5FkfQfjKes-4" style="edgeStyle=orthogonalEdgeStyle;rounded=0;orthogonalLoop=1;jettySize=auto;html=1;" parent="1" source="mqr7jfdnuR5FkfQfjKes-10" target="mqr7jfdnuR5FkfQfjKes-17" edge="1">
          <mxGeometry relative="1" as="geometry" />
        </mxCell>
        <mxCell id="mqr7jfdnuR5FkfQfjKes-5" style="edgeStyle=orthogonalEdgeStyle;rounded=0;orthogonalLoop=1;jettySize=auto;html=1;" parent="1" source="mqr7jfdnuR5FkfQfjKes-10" target="mqr7jfdnuR5FkfQfjKes-20" edge="1">
          <mxGeometry relative="1" as="geometry">
            <Array as="points">
              <mxPoint x="450" y="465" />
              <mxPoint x="490" y="465" />
            </Array>
          </mxGeometry>
        </mxCell>
        <mxCell id="mqr7jfdnuR5FkfQfjKes-6" style="edgeStyle=orthogonalEdgeStyle;rounded=0;orthogonalLoop=1;jettySize=auto;html=1;" parent="1" source="mqr7jfdnuR5FkfQfjKes-10" target="mqr7jfdnuR5FkfQfjKes-19" edge="1">
          <mxGeometry relative="1" as="geometry">
            <Array as="points">
              <mxPoint x="370" y="290" />
              <mxPoint x="370" y="290" />
            </Array>
          </mxGeometry>
        </mxCell>
        <mxCell id="mqr7jfdnuR5FkfQfjKes-7" value="SSE" style="edgeLabel;html=1;align=center;verticalAlign=middle;resizable=0;points=[];" parent="mqr7jfdnuR5FkfQfjKes-6" vertex="1" connectable="0">
          <mxGeometry x="-0.2667" y="2" relative="1" as="geometry">
            <mxPoint y="6.67" as="offset" />
          </mxGeometry>
        </mxCell>
        <mxCell id="mqr7jfdnuR5FkfQfjKes-8" style="edgeStyle=orthogonalEdgeStyle;rounded=0;orthogonalLoop=1;jettySize=auto;html=1;" parent="1" source="mqr7jfdnuR5FkfQfjKes-10" target="mqr7jfdnuR5FkfQfjKes-26" edge="1">
          <mxGeometry relative="1" as="geometry" />
        </mxCell>
        <mxCell id="mqr7jfdnuR5FkfQfjKes-9" style="edgeStyle=orthogonalEdgeStyle;rounded=0;orthogonalLoop=1;jettySize=auto;html=1;entryX=0;entryY=0.5;entryDx=0;entryDy=0;exitX=0.167;exitY=0.002;exitDx=0;exitDy=0;exitPerimeter=0;" parent="1" source="mqr7jfdnuR5FkfQfjKes-10" target="mqr7jfdnuR5FkfQfjKes-22" edge="1">
          <mxGeometry relative="1" as="geometry">
            <mxPoint x="310" y="70" as="targetPoint" />
            <Array as="points">
              <mxPoint x="370" y="270" />
              <mxPoint x="310" y="270" />
              <mxPoint x="310" y="40" />
            </Array>
          </mxGeometry>
        </mxCell>
        <mxCell id="mqr7jfdnuR5FkfQfjKes-10" value="SIM-FEC" style="rounded=0;whiteSpace=wrap;html=1;" parent="1" vertex="1">
          <mxGeometry x="350" y="360" width="120" height="60" as="geometry" />
        </mxCell>
        <mxCell id="mqr7jfdnuR5FkfQfjKes-11" value="Tipos elementos y estructura Eulynx" style="shape=card;whiteSpace=wrap;html=1;" parent="1" vertex="1">
          <mxGeometry x="610" y="250" width="80" height="100" as="geometry" />
        </mxCell>
        <mxCell id="mqr7jfdnuR5FkfQfjKes-12" value="Elementos (ence, tipo)" style="shape=card;whiteSpace=wrap;html=1;" parent="1" vertex="1">
          <mxGeometry x="650" y="410" width="80" height="100" as="geometry" />
        </mxCell>
        <mxCell id="mqr7jfdnuR5FkfQfjKes-13" style="edgeStyle=orthogonalEdgeStyle;rounded=0;orthogonalLoop=1;jettySize=auto;html=1;entryX=0.5;entryY=1;entryDx=0;entryDy=0;" parent="1" source="mqr7jfdnuR5FkfQfjKes-14" target="mqr7jfdnuR5FkfQfjKes-17" edge="1">
          <mxGeometry relative="1" as="geometry" />
        </mxCell>
        <mxCell id="mqr7jfdnuR5FkfQfjKes-14" value="Cassandra" style="shape=cylinder3;whiteSpace=wrap;html=1;boundedLbl=1;backgroundOutline=1;size=15;" parent="1" vertex="1">
          <mxGeometry x="300" y="510" width="60" height="80" as="geometry" />
        </mxCell>
        <mxCell id="mqr7jfdnuR5FkfQfjKes-15" value="" style="ellipse;whiteSpace=wrap;html=1;aspect=fixed;" parent="1" vertex="1">
          <mxGeometry x="400" y="280" width="20" height="20" as="geometry" />
        </mxCell>
        <mxCell id="mqr7jfdnuR5FkfQfjKes-16" value="" style="endArrow=none;html=1;entryX=0.5;entryY=1;entryDx=0;entryDy=0;" parent="1" target="mqr7jfdnuR5FkfQfjKes-15" edge="1">
          <mxGeometry width="50" height="50" relative="1" as="geometry">
            <mxPoint x="410" y="360" as="sourcePoint" />
            <mxPoint x="440" y="320" as="targetPoint" />
          </mxGeometry>
        </mxCell>
        <mxCell id="mqr7jfdnuR5FkfQfjKes-17" value="eslastic search" style="whiteSpace=wrap;html=1;aspect=fixed;" parent="1" vertex="1">
          <mxGeometry x="190" y="350" width="80" height="80" as="geometry" />
        </mxCell>
        <mxCell id="mqr7jfdnuR5FkfQfjKes-18" value="API" style="edgeStyle=orthogonalEdgeStyle;rounded=0;orthogonalLoop=1;jettySize=auto;html=1;entryX=0.5;entryY=0;entryDx=0;entryDy=0;" parent="1" source="mqr7jfdnuR5FkfQfjKes-19" target="mqr7jfdnuR5FkfQfjKes-15" edge="1">
          <mxGeometry relative="1" as="geometry">
            <Array as="points">
              <mxPoint x="410" y="200" />
              <mxPoint x="410" y="200" />
            </Array>
          </mxGeometry>
        </mxCell>
        <mxCell id="mqr7jfdnuR5FkfQfjKes-19" value="FRONT" style="rounded=0;whiteSpace=wrap;html=1;" parent="1" vertex="1">
          <mxGeometry x="350" y="90" width="120" height="60" as="geometry" />
        </mxCell>
        <mxCell id="mqr7jfdnuR5FkfQfjKes-20" value="Ignite" style="shape=cylinder3;whiteSpace=wrap;html=1;boundedLbl=1;backgroundOutline=1;size=15;" parent="1" vertex="1">
          <mxGeometry x="460" y="510" width="60" height="80" as="geometry" />
        </mxCell>
        <mxCell id="mqr7jfdnuR5FkfQfjKes-21" value="API" style="edgeStyle=orthogonalEdgeStyle;rounded=0;orthogonalLoop=1;jettySize=auto;html=1;entryX=1;entryY=0.5;entryDx=0;entryDy=0;" parent="1" source="mqr7jfdnuR5FkfQfjKes-22" edge="1" target="mqr7jfdnuR5FkfQfjKes-15">
          <mxGeometry relative="1" as="geometry">
            <Array as="points">
              <mxPoint x="490" y="290" />
            </Array>
            <mxPoint x="440" y="290" as="targetPoint" />
          </mxGeometry>
        </mxCell>
        <mxCell id="mqr7jfdnuR5FkfQfjKes-22" value="FRONT" style="rounded=0;whiteSpace=wrap;html=1;" parent="1" vertex="1">
          <mxGeometry x="450" y="10" width="120" height="60" as="geometry" />
        </mxCell>
        <mxCell id="mqr7jfdnuR5FkfQfjKes-23" style="edgeStyle=orthogonalEdgeStyle;rounded=0;orthogonalLoop=1;jettySize=auto;html=1;entryX=0.5;entryY=1;entryDx=0;entryDy=0;entryPerimeter=0;fillColor=#f8cecc;strokeColor=#b85450;" parent="1" source="mqr7jfdnuR5FkfQfjKes-24" target="mqr7jfdnuR5FkfQfjKes-20" edge="1">
          <mxGeometry relative="1" as="geometry">
            <Array as="points">
              <mxPoint x="490" y="710" />
            </Array>
          </mxGeometry>
        </mxCell>
        <mxCell id="mqr7jfdnuR5FkfQfjKes-24" value="Signalling Monitoring service" style="rounded=0;whiteSpace=wrap;html=1;" parent="1" vertex="1">
          <mxGeometry x="350" y="680" width="120" height="60" as="geometry" />
        </mxCell>
        <mxCell id="mqr7jfdnuR5FkfQfjKes-25" style="edgeStyle=orthogonalEdgeStyle;rounded=0;orthogonalLoop=1;jettySize=auto;html=1;entryX=0.5;entryY=0;entryDx=0;entryDy=0;" parent="1" source="mqr7jfdnuR5FkfQfjKes-26" target="mqr7jfdnuR5FkfQfjKes-24" edge="1">
          <mxGeometry relative="1" as="geometry" />
        </mxCell>
        <mxCell id="mqr7jfdnuR5FkfQfjKes-26" value="JMS" style="shape=cylinder3;whiteSpace=wrap;html=1;boundedLbl=1;backgroundOutline=1;size=15;" parent="1" vertex="1">
          <mxGeometry x="380" y="510" width="60" height="80" as="geometry" />
        </mxCell>
        <mxCell id="k29K2QgjoULuyAqYibeC-12" value="fieldStatus" style="shape=tape;whiteSpace=wrap;html=1;fillColor=#dae8fc;strokeColor=#6c8ebf;" vertex="1" parent="1">
          <mxGeometry x="460" y="430" width="80" height="40" as="geometry" />
        </mxCell>
        <mxCell id="k29K2QgjoULuyAqYibeC-13" value="msg notifi&lt;br&gt;fieldStatus" style="shape=tape;whiteSpace=wrap;html=1;fillColor=#e1d5e7;strokeColor=#9673a6;" vertex="1" parent="1">
          <mxGeometry x="383.5" y="430" width="60" height="70" as="geometry" />
        </mxCell>
        <mxCell id="k29K2QgjoULuyAqYibeC-14" value="request op&lt;br&gt;fieldStatus" style="shape=tape;whiteSpace=wrap;html=1;fillColor=#d5e8d4;strokeColor=#82b366;" vertex="1" parent="1">
          <mxGeometry x="390" y="310" width="70" height="50" as="geometry" />
        </mxCell>
        <mxCell id="k29K2QgjoULuyAqYibeC-19" value="fieldStatus" style="shape=tape;whiteSpace=wrap;html=1;fillColor=#dae8fc;strokeColor=#6c8ebf;" vertex="1" parent="1">
          <mxGeometry x="450" y="620" width="80" height="40" as="geometry" />
        </mxCell>
        <mxCell id="k29K2QgjoULuyAqYibeC-20" value="msg notifi&lt;br&gt;fieldStatus" style="shape=tape;whiteSpace=wrap;html=1;fillColor=#e1d5e7;strokeColor=#9673a6;" vertex="1" parent="1">
          <mxGeometry x="370" y="600" width="60" height="70" as="geometry" />
        </mxCell>
        <mxCell id="k29K2QgjoULuyAqYibeC-22" value="fieldStatus" style="shape=tape;whiteSpace=wrap;html=1;fillColor=#dae8fc;strokeColor=#6c8ebf;" vertex="1" parent="1">
          <mxGeometry x="300" y="430" width="80" height="40" as="geometry" />
        </mxCell>
        <mxCell id="k29K2QgjoULuyAqYibeC-23" value="msg notifi&lt;br&gt;fieldStatus" style="shape=tape;whiteSpace=wrap;html=1;fillColor=#e1d5e7;strokeColor=#9673a6;" vertex="1" parent="1">
          <mxGeometry x="310" y="295" width="60" height="55" as="geometry" />
        </mxCell>
      </root>
    </mxGraphModel>
  </diagram>
  <diagram name="Page-3" id="8ZVHa1ZDVzVdhbC62e9t">
    <mxGraphModel dx="1422" dy="762" grid="1" gridSize="10" guides="1" tooltips="1" connect="1" arrows="1" fold="1" page="1" pageScale="1" pageWidth="827" pageHeight="1169" math="0" shadow="0">
      <root>
        <mxCell id="g6uH5j_f1oCL4-2kIX-J-0" />
        <mxCell id="g6uH5j_f1oCL4-2kIX-J-1" parent="g6uH5j_f1oCL4-2kIX-J-0" />
        <mxCell id="g6uH5j_f1oCL4-2kIX-J-6" style="edgeStyle=orthogonalEdgeStyle;rounded=0;orthogonalLoop=1;jettySize=auto;html=1;entryX=0.433;entryY=1;entryDx=0;entryDy=0;entryPerimeter=0;" edge="1" parent="g6uH5j_f1oCL4-2kIX-J-1" source="g6uH5j_f1oCL4-2kIX-J-2" target="g6uH5j_f1oCL4-2kIX-J-5">
          <mxGeometry relative="1" as="geometry">
            <Array as="points">
              <mxPoint x="140" y="520" />
              <mxPoint x="292" y="520" />
            </Array>
          </mxGeometry>
        </mxCell>
        <mxCell id="g6uH5j_f1oCL4-2kIX-J-2" value="ENCE-1" style="rounded=0;whiteSpace=wrap;html=1;" vertex="1" parent="g6uH5j_f1oCL4-2kIX-J-1">
          <mxGeometry x="80" y="560" width="120" height="60" as="geometry" />
        </mxCell>
        <mxCell id="g6uH5j_f1oCL4-2kIX-J-7" style="edgeStyle=orthogonalEdgeStyle;rounded=0;orthogonalLoop=1;jettySize=auto;html=1;entryX=0.5;entryY=1;entryDx=0;entryDy=0;" edge="1" parent="g6uH5j_f1oCL4-2kIX-J-1" source="g6uH5j_f1oCL4-2kIX-J-3" target="g6uH5j_f1oCL4-2kIX-J-5">
          <mxGeometry relative="1" as="geometry" />
        </mxCell>
        <mxCell id="g6uH5j_f1oCL4-2kIX-J-3" value="ENCE-2" style="rounded=0;whiteSpace=wrap;html=1;" vertex="1" parent="g6uH5j_f1oCL4-2kIX-J-1">
          <mxGeometry x="240" y="560" width="120" height="60" as="geometry" />
        </mxCell>
        <mxCell id="g6uH5j_f1oCL4-2kIX-J-8" style="edgeStyle=orthogonalEdgeStyle;rounded=0;orthogonalLoop=1;jettySize=auto;html=1;" edge="1" parent="g6uH5j_f1oCL4-2kIX-J-1" source="g6uH5j_f1oCL4-2kIX-J-4" target="g6uH5j_f1oCL4-2kIX-J-5">
          <mxGeometry relative="1" as="geometry">
            <Array as="points">
              <mxPoint x="500" y="540" />
              <mxPoint x="330" y="540" />
            </Array>
          </mxGeometry>
        </mxCell>
        <mxCell id="g6uH5j_f1oCL4-2kIX-J-4" value="ENCE-N" style="rounded=0;whiteSpace=wrap;html=1;" vertex="1" parent="g6uH5j_f1oCL4-2kIX-J-1">
          <mxGeometry x="440" y="560" width="120" height="60" as="geometry" />
        </mxCell>
        <mxCell id="g6uH5j_f1oCL4-2kIX-J-5" value="PDS" style="rounded=0;whiteSpace=wrap;html=1;" vertex="1" parent="g6uH5j_f1oCL4-2kIX-J-1">
          <mxGeometry x="240" y="440" width="120" height="60" as="geometry" />
        </mxCell>
        <mxCell id="g6uH5j_f1oCL4-2kIX-J-9" value="" style="rounded=0;whiteSpace=wrap;html=1;" vertex="1" parent="g6uH5j_f1oCL4-2kIX-J-1">
          <mxGeometry x="250" y="430" width="20" height="20" as="geometry" />
        </mxCell>
        <mxCell id="g6uH5j_f1oCL4-2kIX-J-10" value="" style="rounded=0;whiteSpace=wrap;html=1;" vertex="1" parent="g6uH5j_f1oCL4-2kIX-J-1">
          <mxGeometry x="290" y="430" width="20" height="20" as="geometry" />
        </mxCell>
        <mxCell id="g6uH5j_f1oCL4-2kIX-J-11" value="" style="rounded=0;whiteSpace=wrap;html=1;" vertex="1" parent="g6uH5j_f1oCL4-2kIX-J-1">
          <mxGeometry x="330" y="430" width="20" height="20" as="geometry" />
        </mxCell>
        <mxCell id="g6uH5j_f1oCL4-2kIX-J-13" style="edgeStyle=orthogonalEdgeStyle;rounded=0;orthogonalLoop=1;jettySize=auto;html=1;entryX=0.5;entryY=1;entryDx=0;entryDy=0;" edge="1" parent="g6uH5j_f1oCL4-2kIX-J-1" source="g6uH5j_f1oCL4-2kIX-J-12" target="g6uH5j_f1oCL4-2kIX-J-2">
          <mxGeometry relative="1" as="geometry" />
        </mxCell>
        <mxCell id="g6uH5j_f1oCL4-2kIX-J-12" value="PLO" style="rounded=0;whiteSpace=wrap;html=1;" vertex="1" parent="g6uH5j_f1oCL4-2kIX-J-1">
          <mxGeometry x="80" y="670" width="120" height="60" as="geometry" />
        </mxCell>
        <mxCell id="g6uH5j_f1oCL4-2kIX-J-14" value="PDS" style="rounded=0;whiteSpace=wrap;html=1;" vertex="1" parent="g6uH5j_f1oCL4-2kIX-J-1">
          <mxGeometry x="370" y="440" width="120" height="60" as="geometry" />
        </mxCell>
        <mxCell id="g6uH5j_f1oCL4-2kIX-J-16" style="edgeStyle=orthogonalEdgeStyle;rounded=0;orthogonalLoop=1;jettySize=auto;html=1;entryX=0.5;entryY=0;entryDx=0;entryDy=0;" edge="1" parent="g6uH5j_f1oCL4-2kIX-J-1" source="g6uH5j_f1oCL4-2kIX-J-15" target="g6uH5j_f1oCL4-2kIX-J-10">
          <mxGeometry relative="1" as="geometry">
            <Array as="points">
              <mxPoint x="300" y="380" />
              <mxPoint x="300" y="380" />
            </Array>
          </mxGeometry>
        </mxCell>
        <mxCell id="g6uH5j_f1oCL4-2kIX-J-27" style="edgeStyle=orthogonalEdgeStyle;rounded=0;orthogonalLoop=1;jettySize=auto;html=1;entryX=0.5;entryY=1;entryDx=0;entryDy=0;" edge="1" parent="g6uH5j_f1oCL4-2kIX-J-1" source="g6uH5j_f1oCL4-2kIX-J-15" target="g6uH5j_f1oCL4-2kIX-J-26">
          <mxGeometry relative="1" as="geometry" />
        </mxCell>
        <mxCell id="tqx-FoHAZw1OHkQQxcA4-8" style="edgeStyle=orthogonalEdgeStyle;rounded=0;orthogonalLoop=1;jettySize=auto;html=1;entryX=1;entryY=0;entryDx=0;entryDy=52.5;entryPerimeter=0;" edge="1" parent="g6uH5j_f1oCL4-2kIX-J-1" source="g6uH5j_f1oCL4-2kIX-J-15" target="tqx-FoHAZw1OHkQQxcA4-4">
          <mxGeometry relative="1" as="geometry" />
        </mxCell>
        <mxCell id="g6uH5j_f1oCL4-2kIX-J-15" value="FEC" style="rounded=0;whiteSpace=wrap;html=1;" vertex="1" parent="g6uH5j_f1oCL4-2kIX-J-1">
          <mxGeometry x="240" y="300" width="120" height="60" as="geometry" />
        </mxCell>
        <mxCell id="g6uH5j_f1oCL4-2kIX-J-22" style="edgeStyle=orthogonalEdgeStyle;rounded=0;orthogonalLoop=1;jettySize=auto;html=1;entryX=0.5;entryY=1;entryDx=0;entryDy=0;" edge="1" parent="g6uH5j_f1oCL4-2kIX-J-1" source="g6uH5j_f1oCL4-2kIX-J-21" target="g6uH5j_f1oCL4-2kIX-J-3">
          <mxGeometry relative="1" as="geometry" />
        </mxCell>
        <mxCell id="g6uH5j_f1oCL4-2kIX-J-21" value="PLO" style="rounded=0;whiteSpace=wrap;html=1;" vertex="1" parent="g6uH5j_f1oCL4-2kIX-J-1">
          <mxGeometry x="240" y="670" width="120" height="60" as="geometry" />
        </mxCell>
        <mxCell id="g6uH5j_f1oCL4-2kIX-J-24" style="edgeStyle=orthogonalEdgeStyle;rounded=0;orthogonalLoop=1;jettySize=auto;html=1;entryX=0.308;entryY=1.033;entryDx=0;entryDy=0;entryPerimeter=0;" edge="1" parent="g6uH5j_f1oCL4-2kIX-J-1" source="g6uH5j_f1oCL4-2kIX-J-23" target="g6uH5j_f1oCL4-2kIX-J-3">
          <mxGeometry relative="1" as="geometry" />
        </mxCell>
        <mxCell id="g6uH5j_f1oCL4-2kIX-J-25" style="edgeStyle=orthogonalEdgeStyle;rounded=0;orthogonalLoop=1;jettySize=auto;html=1;entryX=0.75;entryY=1;entryDx=0;entryDy=0;" edge="1" parent="g6uH5j_f1oCL4-2kIX-J-1" source="g6uH5j_f1oCL4-2kIX-J-23" target="g6uH5j_f1oCL4-2kIX-J-2">
          <mxGeometry relative="1" as="geometry" />
        </mxCell>
        <mxCell id="g6uH5j_f1oCL4-2kIX-J-23" value="PRO&lt;br&gt;" style="rounded=0;whiteSpace=wrap;html=1;" vertex="1" parent="g6uH5j_f1oCL4-2kIX-J-1">
          <mxGeometry x="160" y="790" width="120" height="60" as="geometry" />
        </mxCell>
        <mxCell id="tqx-FoHAZw1OHkQQxcA4-5" style="edgeStyle=orthogonalEdgeStyle;rounded=0;orthogonalLoop=1;jettySize=auto;html=1;" edge="1" parent="g6uH5j_f1oCL4-2kIX-J-1" source="g6uH5j_f1oCL4-2kIX-J-26" target="tqx-FoHAZw1OHkQQxcA4-4">
          <mxGeometry relative="1" as="geometry" />
        </mxCell>
        <mxCell id="g6uH5j_f1oCL4-2kIX-J-26" value="Signalling monitoring" style="rounded=0;whiteSpace=wrap;html=1;" vertex="1" parent="g6uH5j_f1oCL4-2kIX-J-1">
          <mxGeometry x="240" y="180" width="120" height="60" as="geometry" />
        </mxCell>
        <mxCell id="tqx-FoHAZw1OHkQQxcA4-1" style="edgeStyle=orthogonalEdgeStyle;rounded=0;orthogonalLoop=1;jettySize=auto;html=1;entryX=0.5;entryY=0;entryDx=0;entryDy=0;" edge="1" parent="g6uH5j_f1oCL4-2kIX-J-1" source="tqx-FoHAZw1OHkQQxcA4-0" target="g6uH5j_f1oCL4-2kIX-J-26">
          <mxGeometry relative="1" as="geometry" />
        </mxCell>
        <mxCell id="tqx-FoHAZw1OHkQQxcA4-15" style="edgeStyle=orthogonalEdgeStyle;rounded=0;orthogonalLoop=1;jettySize=auto;html=1;" edge="1" parent="g6uH5j_f1oCL4-2kIX-J-1" source="tqx-FoHAZw1OHkQQxcA4-0" target="tqx-FoHAZw1OHkQQxcA4-14">
          <mxGeometry relative="1" as="geometry" />
        </mxCell>
        <mxCell id="tqx-FoHAZw1OHkQQxcA4-0" value="sinoptico&lt;br&gt;" style="rounded=0;whiteSpace=wrap;html=1;" vertex="1" parent="g6uH5j_f1oCL4-2kIX-J-1">
          <mxGeometry x="240" y="20" width="120" height="60" as="geometry" />
        </mxCell>
        <mxCell id="tqx-FoHAZw1OHkQQxcA4-6" style="edgeStyle=orthogonalEdgeStyle;rounded=0;orthogonalLoop=1;jettySize=auto;html=1;entryX=0.7;entryY=0.983;entryDx=0;entryDy=0;entryPerimeter=0;" edge="1" parent="g6uH5j_f1oCL4-2kIX-J-1" source="tqx-FoHAZw1OHkQQxcA4-2" target="g6uH5j_f1oCL4-2kIX-J-26">
          <mxGeometry relative="1" as="geometry">
            <Array as="points">
              <mxPoint x="430" y="280" />
              <mxPoint x="324" y="280" />
            </Array>
          </mxGeometry>
        </mxCell>
        <mxCell id="tqx-FoHAZw1OHkQQxcA4-2" value="FEC" style="rounded=0;whiteSpace=wrap;html=1;fillColor=#f8cecc;strokeColor=#b85450;" vertex="1" parent="g6uH5j_f1oCL4-2kIX-J-1">
          <mxGeometry x="370" y="300" width="120" height="60" as="geometry" />
        </mxCell>
        <mxCell id="tqx-FoHAZw1OHkQQxcA4-7" style="edgeStyle=orthogonalEdgeStyle;rounded=0;orthogonalLoop=1;jettySize=auto;html=1;entryX=1;entryY=0.5;entryDx=0;entryDy=0;" edge="1" parent="g6uH5j_f1oCL4-2kIX-J-1" source="tqx-FoHAZw1OHkQQxcA4-3" target="g6uH5j_f1oCL4-2kIX-J-26">
          <mxGeometry relative="1" as="geometry">
            <Array as="points">
              <mxPoint x="560" y="210" />
            </Array>
          </mxGeometry>
        </mxCell>
        <mxCell id="tqx-FoHAZw1OHkQQxcA4-3" value="FEC" style="rounded=0;whiteSpace=wrap;html=1;" vertex="1" parent="g6uH5j_f1oCL4-2kIX-J-1">
          <mxGeometry x="500" y="300" width="120" height="60" as="geometry" />
        </mxCell>
        <mxCell id="tqx-FoHAZw1OHkQQxcA4-4" value="" style="shape=cylinder3;whiteSpace=wrap;html=1;boundedLbl=1;backgroundOutline=1;size=15;" vertex="1" parent="g6uH5j_f1oCL4-2kIX-J-1">
          <mxGeometry x="90" y="280" width="60" height="80" as="geometry" />
        </mxCell>
        <mxCell id="tqx-FoHAZw1OHkQQxcA4-11" style="edgeStyle=orthogonalEdgeStyle;rounded=0;orthogonalLoop=1;jettySize=auto;html=1;entryX=0;entryY=0.5;entryDx=0;entryDy=0;" edge="1" parent="g6uH5j_f1oCL4-2kIX-J-1" source="tqx-FoHAZw1OHkQQxcA4-9" target="tqx-FoHAZw1OHkQQxcA4-0">
          <mxGeometry relative="1" as="geometry" />
        </mxCell>
        <mxCell id="tqx-FoHAZw1OHkQQxcA4-9" value="Actor" style="shape=umlActor;verticalLabelPosition=bottom;verticalAlign=top;html=1;outlineConnect=0;" vertex="1" parent="g6uH5j_f1oCL4-2kIX-J-1">
          <mxGeometry x="140" y="20" width="30" height="60" as="geometry" />
        </mxCell>
        <mxCell id="tqx-FoHAZw1OHkQQxcA4-16" style="edgeStyle=orthogonalEdgeStyle;rounded=0;orthogonalLoop=1;jettySize=auto;html=1;entryX=0.75;entryY=0;entryDx=0;entryDy=0;" edge="1" parent="g6uH5j_f1oCL4-2kIX-J-1" source="tqx-FoHAZw1OHkQQxcA4-14" target="g6uH5j_f1oCL4-2kIX-J-15">
          <mxGeometry relative="1" as="geometry">
            <Array as="points">
              <mxPoint x="520" y="260" />
              <mxPoint x="330" y="260" />
            </Array>
          </mxGeometry>
        </mxCell>
        <mxCell id="tqx-FoHAZw1OHkQQxcA4-14" value="Signalling control" style="rounded=0;whiteSpace=wrap;html=1;" vertex="1" parent="g6uH5j_f1oCL4-2kIX-J-1">
          <mxGeometry x="460" y="110" width="120" height="60" as="geometry" />
        </mxCell>
      </root>
    </mxGraphModel>
  </diagram>
</mxfile>
